<svg width="20" height="20" viewBox="0 0 20 20" fill="none" xmlns="http://www.w3.org/2000/svg">
<path d="M9.16667 9.16667H2.98023e-07V2.5C2.98023e-07 1.83696 0.263392 1.20107 0.732233 0.732233C1.20107 0.263392 1.83696 2.98023e-07 2.5 2.98023e-07H9.16667V9.16667ZM1.66667 7.5H7.5V1.66667H2.5C2.27899 1.66667 2.06702 1.75446 1.91074 1.91074C1.75446 2.06702 1.66667 2.27899 1.66667 2.5V7.5Z" fill="white"/>
<path d="M20 9.16667H10.8333V0H17.5C18.163 0 18.7989 0.263392 19.2678 0.732233C19.7366 1.20107 20 1.83696 20 2.5V9.16667ZM12.5 7.5H18.3333V2.5C18.3333 2.27899 18.2455 2.06703 18.0893 1.91074C17.933 1.75446 17.721 1.66667 17.5 1.66667H12.5V7.5Z" fill="white"/>
<path d="M9.16667 20H2.5C1.83696 20 1.20107 19.7366 0.732233 19.2678C0.263392 18.7989 0 18.163 0 17.5V10.8333H9.16667V20ZM1.66667 12.5V17.5C1.66667 17.721 1.75446 17.933 1.91074 18.0893C2.06703 18.2455 2.27899 18.3333 2.5 18.3333H7.5V12.5H1.66667Z" fill="white"/>
<path d="M17.5 20H10.8333V10.8333H20V17.5C20 18.163 19.7366 18.7989 19.2678 19.2678C18.7989 19.7366 18.163 20 17.5 20ZM12.5 18.3333H17.5C17.721 18.3333 17.933 18.2455 18.0893 18.0893C18.2455 17.933 18.3333 17.721 18.3333 17.5V12.5H12.5V18.3333Z" fill="white"/>
</svg>
