<svg width="16" height="16" viewBox="0 0 16 16" fill="none" xmlns="http://www.w3.org/2000/svg">
<path d="M10 16L6.00001 13V9.58667L0.666672 3.58667V2C0.666672 1.46957 0.877385 0.960859 1.25246 0.585786C1.62753 0.210714 2.13624 0 2.66667 0L13.3333 0C13.8638 0 14.3725 0.210714 14.7476 0.585786C15.1226 0.960859 15.3333 1.46957 15.3333 2V3.58667L10 9.58667V16ZM7.33334 12.3333L8.66667 13.3333V9.08L14 3.08V2C14 1.82319 13.9298 1.65362 13.8047 1.5286C13.6797 1.40357 13.5102 1.33333 13.3333 1.33333H2.66667C2.48986 1.33333 2.32029 1.40357 2.19527 1.5286C2.07024 1.65362 2.00001 1.82319 2.00001 2V3.08L7.33334 9.08V12.3333Z" fill="#3675BC"/>
</svg>
