<svg width="55" height="61" viewBox="0 0 55 61" fill="none" xmlns="http://www.w3.org/2000/svg">
<g clip-path="url(#clip0_2_960)">
<path d="M84.7278 35.5454L74.3189 32.9424C73.7668 31.2193 73.0773 29.5502 72.2612 27.9606L77.7771 18.7663C78.1735 18.1054 78.0694 17.2595 77.5245 16.7146L69.2856 8.47554C68.7404 7.93048 67.8945 7.8265 67.2337 8.22291L58.0393 13.739C56.4441 12.9202 54.7751 12.2305 53.0575 11.6807L50.4546 1.2722C50.2677 0.524566 49.596 0 48.8252 0H37.1748C36.404 0 35.7323 0.524566 35.5454 1.2722L32.9425 11.6805C31.2247 12.2303 29.556 12.92 27.9608 13.7388L18.7663 8.22274C18.1054 7.82634 17.2595 7.93031 16.7144 8.47537L8.47554 16.7144C7.93064 17.2593 7.8265 18.1054 8.22291 18.7661L13.7388 27.9604C12.9227 29.5501 12.2332 31.2192 11.6811 32.9422L1.2722 35.5454C0.524566 35.7323 0 36.404 0 37.1748V48.8252C0 49.5958 0.524566 50.2677 1.2722 50.4546L11.6811 53.0576C12.2332 54.7807 12.9227 56.4498 13.7388 58.0394L8.22291 67.2337C7.8265 67.8946 7.93064 68.7405 8.47554 69.2854L16.7144 77.5245C17.2596 78.0695 18.1054 78.1735 18.7663 77.7771L27.9609 72.2608C29.5539 73.0782 31.2229 73.7677 32.9424 74.3188L35.5454 84.7276C35.7323 85.4753 36.404 85.9998 37.1748 85.9998H48.825C49.5958 85.9998 50.2675 85.4753 50.4545 84.7276L53.0575 74.3188C54.777 73.7677 56.4459 73.0782 58.0389 72.2608L67.2335 77.7771C67.8943 78.1735 68.7404 78.0694 69.2854 77.5245L77.5243 69.2854C78.0692 68.7405 78.1733 67.8945 77.7769 67.2337L72.261 58.0394C73.0772 56.4498 73.7667 54.7807 74.3188 53.0576L84.7276 50.4546C85.4753 50.2677 85.9998 49.5958 85.9998 48.8252V37.1748C86 36.404 85.4754 35.7323 84.7278 35.5454ZM82.6406 47.5138L72.5816 50.0293C72.0008 50.1746 71.5413 50.6179 71.3751 51.1932C70.7604 53.3244 69.9146 55.3709 68.8616 57.2762C68.5717 57.8004 68.5833 58.4392 68.8914 58.9528L74.2215 67.8375L67.8372 74.2219L58.9525 68.8917C58.4392 68.5838 57.8009 68.5724 57.2767 68.8615C55.3649 69.9167 53.318 70.7624 51.1928 71.3755C50.6175 71.5414 50.1741 72.0011 50.0288 72.5818L47.5137 82.6406H38.4863L35.9707 72.5816C35.8256 72.0008 35.3819 71.5413 34.8067 71.3753C32.6817 70.7624 30.6346 69.9165 28.7228 68.8613C28.1988 68.5722 27.5603 68.5837 27.047 68.8915L18.1623 74.2217L11.7783 67.8375L17.1085 58.9528C17.4165 58.4392 17.4279 57.8004 17.1382 57.2762C16.0852 55.3709 15.2395 53.3244 14.6247 51.1932C14.4587 50.6179 13.999 50.1746 13.4182 50.0293L3.35938 47.5138V38.4862L13.4184 35.9707C13.9992 35.8254 14.4587 35.3821 14.6249 34.8068C15.2396 32.6756 16.0854 30.6291 17.1384 28.7238C17.4283 28.1996 17.4167 27.5608 17.1086 27.0472L11.7783 18.1625L18.1626 11.7781L27.0473 17.1083C27.5608 17.4163 28.1994 17.4278 28.7235 17.1384C30.6385 16.0808 32.685 15.2351 34.806 14.6249C35.3818 14.4593 35.8256 13.9994 35.971 13.4182L38.4863 3.35938H47.5137L50.0293 13.4184C50.1746 13.9995 50.6186 14.4593 51.1944 14.625C53.3153 15.2353 55.3618 16.081 57.2768 17.1385C57.8009 17.4279 58.4397 17.4167 58.953 17.1085L67.8377 11.7783L74.222 18.1626L68.8919 27.0473C68.5838 27.561 68.5724 28.1998 68.8622 28.724C69.9151 30.6293 70.7609 32.6758 71.3756 34.807C71.5416 35.3823 72.0013 35.8256 72.5822 35.9708L82.6406 38.4862V47.5138Z" fill="#69A7F4"/>
<path d="M43 20.1562C30.404 20.1562 20.1562 30.4039 20.1562 43C20.1562 55.5961 30.404 65.8438 43 65.8438C46.6878 65.8438 50.3545 64.9402 53.604 63.2307C54.4251 62.7986 54.7405 61.7829 54.3083 60.9621C53.8761 60.1412 52.8604 59.8258 52.0397 60.2576C49.2709 61.7144 46.145 62.4844 43 62.4844C32.2562 62.4844 23.5156 53.7436 23.5156 43C23.5156 32.2564 32.2562 23.5156 43 23.5156C53.7438 23.5156 62.4844 32.2564 62.4844 43C62.4844 45.4315 62.0403 47.8041 61.1646 50.0515C60.8277 50.9159 61.2555 51.8896 62.1199 52.2265C62.9851 52.5631 63.9581 52.1355 64.2947 51.2713C65.3225 48.6333 65.8438 45.8504 65.8438 43C65.8438 30.4039 55.596 20.1562 43 20.1562Z" fill="#69A7F4"/>
</g>
<defs>
<clipPath id="clip0_2_960">
<rect width="86" height="86" fill="white"/>
</clipPath>
</defs>
</svg>
