<svg width="14" height="16" viewBox="0 0 14 16" fill="none" xmlns="http://www.w3.org/2000/svg">
<g opacity="0.3">
<path d="M13.8287 6.68065H0.171326L5.77132 0.558645C5.93145 0.394404 6.1229 0.26396 6.33435 0.175038C6.54579 0.0861158 6.77293 0.0405225 7.00231 0.0409577C7.23169 0.0413928 7.45865 0.0878476 7.66976 0.177571C7.88086 0.267295 8.07182 0.398464 8.23132 0.563312L13.8287 6.68065Z" fill="#FBFBFA"/>
<path d="M6.99999 16.0073C6.7674 16.0071 6.53746 15.9579 6.3251 15.8631C6.11273 15.7682 5.9227 15.6297 5.76732 15.4566L0.171326 9.34064H13.8287L8.22866 15.4613C8.07364 15.6334 7.88412 15.771 7.67243 15.8651C7.46075 15.9591 7.23164 16.0076 6.99999 16.0073Z" fill="#FBFBFA"/>
</g>
</svg>
